<svg xmlns="http://www.w3.org/2000/svg" xmlns:svgjs="http://svgjs.com/svgjs" xmlns:xlink="http://www.w3.org/1999/xlink" width="288" height="288"><svg xmlns="http://www.w3.org/2000/svg" width="288" height="288" enable-background="new 0 0 512 512" viewBox="0 0 512 512"><path fill="#616161" d="M472,24.5H87.1c-19.7,0-35.6,15.9-35.6,35.6v392.1c0,19.7,15.9,35.6,35.6,35.6H472c19.7,0,35.6-15.9,35.6-35.6
		V60.1C507.6,40.5,491.7,24.5,472,24.5z M188.8,417.7h-70.2V198.9h70.2V417.7z M153.7,170c-22.2,0-40.3-18-40.3-40.2
		c0-22.2,18-40.3,40.3-40.3c22.2,0,40.2,18,40.2,40.3C193.9,152,175.9,170,153.7,170z M442.6,417.7h-71.2l-2-128
		c-15.4-51.6-73.2-1-73.2-1v129h-70.2V198.9h70.2v27.9C415.2,138,442.6,266,442.6,266V417.7z" class="color01a0c6 svgShape" opacity=".66"/><path fill="#616161" d="M431.6,24.2H46.7c-19.7,0-35.6,15.9-35.6,35.6v392.1c0,19.7,15.9,35.6,35.6,35.6h384.9
		c19.7,0,35.6-15.9,35.6-35.6V59.8C467.2,40.1,451.3,24.2,431.6,24.2z M148.3,417.3H78.2V198.5h70.2V417.3z M113.3,169.7
		c-22.2,0-40.3-18-40.3-40.2c0-22.2,18-40.3,40.3-40.3c22.2,0,40.2,18,40.2,40.3C153.5,151.6,135.5,169.7,113.3,169.7z M402.2,417.3
		H331l-2-128c-15.4-51.6-73.2-1-73.2-1v129h-70.2V198.5h70.2v27.9c118.9-88.7,146.3,39.2,146.3,39.2V417.3z" class="colorred svgShape" opacity=".66"/><path fill="#616161" d="M449.3,24.2H64.4c-19.7,0-35.6,15.9-35.6,35.6v392.1c0,19.7,15.9,35.6,35.6,35.6h384.9c19.7,0,35.6-15.9,35.6-35.6V59.8
		C484.9,40.1,469,24.2,449.3,24.2z M166,417.3H95.9V198.5H166V417.3z M131,169.7c-22.2,0-40.3-18-40.3-40.2
		c0-22.2,18-40.3,40.3-40.3c22.2,0,40.2,18,40.2,40.3C171.2,151.6,153.2,169.7,131,169.7z M419.9,417.3h-71.2l-2-128
		c-15.4-51.6-73.2-1-73.2-1v129h-70.2V198.5h70.2v27.9c118.9-88.7,146.3,39.2,146.3,39.2V417.3z" class="color000 svgShape"/></svg></svg>